<svg height="512" viewBox="0 0 64 64" width="512" xmlns="http://www.w3.org/2000/svg"><g id="Truck-7" data-name="Truck"><path d="m56 36h4v2h-4z"/><path d="m51.6 22h-7.6v8h15.234l-3.343-5.572a5.027 5.027 0 0 0 -4.291-2.428z"/><path d="m55.92 46h3.08a1 1 0 0 0 1-1v-1h-3v-2h3v-2h-4a2 2 0 0 1 -2-2v-2a2 2 0 0 1 2-2h4v-1.892c0-.037-.013-.072-.015-.108h-16.985a1 1 0 0 1 -1-1v-9h-2v24h2.08a6.991 6.991 0 0 1 13.84 0zm-9.92-10h-4v-2h4z"/><path d="m21.92 46h16.08v-29.586l-4.414-4.414h-28.586a1 1 0 0 0 -1 1v32a1 1 0 0 0 1 1h3.08a6.991 6.991 0 0 1 13.84 0z"/><path d="m15 42a5 5 0 1 0 5 5 5.006 5.006 0 0 0 -5-5zm1 6h-2v-2h2z"/><path d="m49 42a5 5 0 1 0 5 5 5.006 5.006 0 0 0 -5-5zm1 6h-2v-2h2z"/><path d="m46 20h-2v-6h-2v-2h2a2 2 0 0 1 2 2z"/></g></svg>