<svg width="12" height="18" viewBox="0 0 12 18" fill="none" xmlns="http://www.w3.org/2000/svg">
<mask id="path-1-inside-1" fill="white">
<path d="M12 7.11453C12 11.734 6.13587 17.75 6.13587 17.75C6.13587 17.75 0.271729 11.8616 0.271729 7.11453C0.271729 3.5995 2.8972 0.75 6.13587 0.75C9.37455 0.75 12 3.5995 12 7.11453Z"/>
</mask>
<path d="M6.13587 17.75L5.42731 18.4556L6.14351 19.1748L6.85196 18.448L6.13587 17.75ZM11 7.11453C11 8.0713 10.6924 9.16569 10.1728 10.3125C9.65746 11.4502 8.96135 12.5793 8.25038 13.5887C7.54128 14.5955 6.83009 15.4654 6.29552 16.084C6.02872 16.3927 5.80713 16.6375 5.65341 16.8038C5.57658 16.8869 5.51679 16.9504 5.47689 16.9924C5.45694 17.0134 5.44197 17.029 5.43233 17.039C5.42751 17.044 5.42403 17.0476 5.42192 17.0498C5.42087 17.0509 5.42016 17.0516 5.4198 17.052C5.41962 17.0522 5.41953 17.0522 5.41953 17.0523C5.41953 17.0523 5.41959 17.0522 5.41959 17.0522C5.41968 17.0521 5.41979 17.052 6.13587 17.75C6.85196 18.448 6.85211 18.4479 6.85229 18.4477C6.85238 18.4476 6.85258 18.4474 6.85275 18.4472C6.85311 18.4468 6.85355 18.4464 6.85408 18.4458C6.85514 18.4447 6.85656 18.4433 6.85833 18.4415C6.86186 18.4378 6.86679 18.4327 6.87306 18.4262C6.88562 18.4132 6.90357 18.3944 6.92657 18.3702C6.97257 18.3218 7.03877 18.2515 7.12229 18.1612C7.28926 17.9805 7.52581 17.7191 7.80877 17.3917C8.37373 16.7379 9.12857 15.8151 9.88551 14.7404C10.6406 13.6684 11.4105 12.4273 11.9946 11.1378C12.5747 9.8574 13 8.4675 13 7.11453H11ZM6.13587 17.75C6.84444 17.0444 6.84456 17.0445 6.84465 17.0446C6.84465 17.0446 6.84472 17.0446 6.84473 17.0446C6.84474 17.0447 6.84466 17.0446 6.84449 17.0444C6.84415 17.0441 6.84347 17.0434 6.84243 17.0423C6.84037 17.0402 6.83693 17.0368 6.83216 17.0319C6.82261 17.0222 6.80773 17.007 6.78787 16.9865C6.74815 16.9456 6.68856 16.8835 6.61192 16.8022C6.4586 16.6393 6.23744 16.3994 5.97109 16.096C5.4374 15.4881 4.72729 14.6311 4.01927 13.6336C2.56369 11.5829 1.27173 9.14919 1.27173 7.11453H-0.728271C-0.728271 9.82694 0.911837 12.711 2.38833 14.7912C3.14635 15.8592 3.90228 16.771 4.46811 17.4155C4.75153 17.7383 4.9885 17.9955 5.15587 18.1733C5.23959 18.2622 5.30598 18.3313 5.35216 18.3789C5.37525 18.4027 5.3933 18.4212 5.40594 18.434C5.41227 18.4404 5.41724 18.4455 5.42081 18.4491C5.4226 18.4509 5.42404 18.4524 5.42512 18.4534C5.42567 18.454 5.42612 18.4545 5.42648 18.4548C5.42667 18.455 5.42687 18.4552 5.42696 18.4553C5.42715 18.4555 5.42731 18.4556 6.13587 17.75ZM1.27173 7.11453C1.27173 4.07311 3.525 1.75 6.13587 1.75V-0.25C2.26939 -0.25 -0.728271 3.12588 -0.728271 7.11453H1.27173ZM6.13587 1.75C8.74675 1.75 11 4.07311 11 7.11453H13C13 3.12588 10.0024 -0.25 6.13587 -0.25V1.75Z" fill="#F37833" mask="url(#path-1-inside-1)"/>
<circle cx="6.1359" cy="7.33628" r="1.47251" fill="#F37833"/>
</svg>
