<svg width="130" height="34" viewBox="0 0 130 34" fill="none" xmlns="http://www.w3.org/2000/svg">
<path d="M63.9522 29.4169L63.9454 26.3842L62.4007 28.894H62.0112L60.4664 26.4234V29.4169H59.6336V24.8417H60.3522L62.2194 27.8744L64.0529 24.8417H64.7716L64.7783 29.4169H63.9522Z" fill="#263238"/>
<path d="M68.2444 29.4822C67.7653 29.4822 67.3332 29.382 66.9482 29.1816C66.5631 28.9768 66.2609 28.6958 66.0415 28.3385C65.8221 27.9768 65.7124 27.5738 65.7124 27.1293C65.7124 26.6849 65.8221 26.284 66.0415 25.9267C66.2609 25.565 66.5631 25.284 66.9482 25.0836C67.3332 24.8788 67.7653 24.7764 68.2444 24.7764C68.7235 24.7764 69.1556 24.8788 69.5406 25.0836C69.9257 25.284 70.2279 25.5629 70.4473 25.9202C70.6667 26.2775 70.7764 26.6805 70.7764 27.1293C70.7764 27.5781 70.6667 27.9812 70.4473 28.3385C70.2279 28.6958 69.9257 28.9768 69.5406 29.1816C69.1556 29.382 68.7235 29.4822 68.2444 29.4822ZM68.2444 28.7372C68.5578 28.7372 68.8399 28.6696 69.0906 28.5345C69.3414 28.3951 69.5384 28.2034 69.6817 27.9594C69.825 27.711 69.8966 27.4343 69.8966 27.1293C69.8966 26.8243 69.825 26.5498 69.6817 26.3058C69.5384 26.0574 69.3414 25.8657 69.0906 25.7306C68.8399 25.5912 68.5578 25.5215 68.2444 25.5215C67.931 25.5215 67.6489 25.5912 67.3981 25.7306C67.1474 25.8657 66.9504 26.0574 66.8071 26.3058C66.6638 26.5498 66.5922 26.8243 66.5922 27.1293C66.5922 27.4343 66.6638 27.711 66.8071 27.9594C66.9504 28.2034 67.1474 28.3951 67.3981 28.5345C67.6489 28.6696 67.931 28.7372 68.2444 28.7372Z" fill="#263238"/>
<path d="M75.8495 24.8417L73.801 29.4169H72.9413L70.8862 24.8417H71.8331L73.398 28.3711L74.9764 24.8417H75.8495Z" fill="#263238"/>
<path d="M76.3456 24.8417H77.2187V29.4169H76.3456V24.8417Z" fill="#263238"/>
<path d="M82.6679 24.8417V29.4169H81.9492L79.3568 26.3189V29.4169H78.4904V24.8417H79.209L81.8015 27.9398V24.8417H82.6679Z" fill="#263238"/>
<path d="M87.138 27.077H87.9641V28.9005C87.7224 29.0879 87.4403 29.2317 87.1179 29.3319C86.7955 29.4321 86.4642 29.4822 86.1239 29.4822C85.6448 29.4822 85.2127 29.382 84.8276 29.1816C84.4426 28.9768 84.1403 28.6958 83.9209 28.3385C83.7015 27.9812 83.5918 27.5781 83.5918 27.1293C83.5918 26.6805 83.7015 26.2775 83.9209 25.9202C84.1403 25.5629 84.4426 25.284 84.8276 25.0836C85.2172 24.8788 85.6537 24.7764 86.1373 24.7764C86.5313 24.7764 86.8895 24.8395 87.2119 24.9659C87.5343 25.0923 87.8052 25.2775 88.0246 25.5215L87.4739 26.0443C87.1157 25.6958 86.6836 25.5215 86.1776 25.5215C85.8463 25.5215 85.5508 25.589 85.2911 25.7241C85.0358 25.8592 84.8344 26.0487 84.6866 26.2927C84.5433 26.5367 84.4717 26.8156 84.4717 27.1293C84.4717 27.4343 84.5433 27.7088 84.6866 27.9528C84.8344 28.1968 85.0358 28.3886 85.2911 28.528C85.5508 28.6674 85.844 28.7372 86.1709 28.7372C86.5381 28.7372 86.8604 28.6587 87.138 28.5019V27.077Z" fill="#263238"/>
<path d="M97.8427 24.8417L96.2845 29.4169H95.3576L94.1957 26.0313L93.0136 29.4169H92.0801L90.5219 24.8417H91.4286L92.5972 28.3189L93.8129 24.8417H94.6188L95.8076 28.3385L97.0098 24.8417H97.8427Z" fill="#263238"/>
<path d="M98.5539 24.8417H99.4271V29.4169H98.5539V24.8417Z" fill="#263238"/>
<path d="M101.652 25.5607H100.094V24.8417H104.084V25.5607H102.526V29.4169H101.652V25.5607Z" fill="#263238"/>
<path d="M108.917 24.8417V29.4169H108.043V27.4561H105.612V29.4169H104.739V24.8417H105.612V26.7306H108.043V24.8417H108.917Z" fill="#263238"/>
<path d="M114.061 27.8025V29.4169H113.188V27.8156L111.341 24.8417H112.274L113.651 27.0705L115.041 24.8417H115.901L114.061 27.8025Z" fill="#263238"/>
<path d="M118.466 29.4822C117.987 29.4822 117.555 29.382 117.169 29.1816C116.784 28.9768 116.482 28.6958 116.263 28.3385C116.043 27.9768 115.934 27.5738 115.934 27.1293C115.934 26.6849 116.043 26.284 116.263 25.9267C116.482 25.565 116.784 25.284 117.169 25.0836C117.555 24.8788 117.987 24.7764 118.466 24.7764C118.945 24.7764 119.377 24.8788 119.762 25.0836C120.147 25.284 120.449 25.5629 120.669 25.9202C120.888 26.2775 120.998 26.6805 120.998 27.1293C120.998 27.5781 120.888 27.9812 120.669 28.3385C120.449 28.6958 120.147 28.9768 119.762 29.1816C119.377 29.382 118.945 29.4822 118.466 29.4822ZM118.466 28.7372C118.779 28.7372 119.061 28.6696 119.312 28.5345C119.563 28.3951 119.76 28.2034 119.903 27.9594C120.046 27.711 120.118 27.4343 120.118 27.1293C120.118 26.8243 120.046 26.5498 119.903 26.3058C119.76 26.0574 119.563 25.8657 119.312 25.7306C119.061 25.5912 118.779 25.5215 118.466 25.5215C118.152 25.5215 117.87 25.5912 117.619 25.7306C117.369 25.8657 117.172 26.0574 117.028 26.3058C116.885 26.5498 116.813 26.8243 116.813 27.1293C116.813 27.4343 116.885 27.711 117.028 27.9594C117.172 28.2034 117.369 28.3951 117.619 28.5345C117.87 28.6696 118.152 28.7372 118.466 28.7372Z" fill="#263238"/>
<path d="M123.945 29.4822C123.296 29.4822 122.79 29.3058 122.427 28.9528C122.064 28.5955 121.883 28.0857 121.883 27.4234V24.8417H122.756V27.3907C122.756 28.2883 123.155 28.7372 123.952 28.7372C124.744 28.7372 125.14 28.2883 125.14 27.3907V24.8417H126V27.4234C126 28.0857 125.819 28.5955 125.456 28.9528C125.098 29.3058 124.594 29.4822 123.945 29.4822Z" fill="#263238"/>
<path d="M66.6405 18.0652V15.5253H70.5074V17.6588C70.5074 19.8939 69.3056 21.0115 66.9022 21.0115H63.2388C60.8353 21.0115 59.6336 19.8939 59.6336 17.6588V7.42299C59.6336 5.18787 60.8353 4.07031 63.2388 4.07031H66.9022C69.3056 4.07031 70.5074 5.18787 70.5074 7.42299V8.97233H66.6405V6.9912C66.6405 6.85574 66.5823 6.73721 66.466 6.63562C66.3691 6.53402 66.2431 6.48322 66.0881 6.48322H64.2564C64.1013 6.48322 63.9657 6.53402 63.8494 6.63562C63.7524 6.73721 63.704 6.85574 63.704 6.9912V18.0652C63.704 18.2007 63.7524 18.3192 63.8494 18.4208C63.9657 18.5224 64.1013 18.5732 64.2564 18.5732H66.0881C66.2431 18.5732 66.3691 18.5224 66.466 18.4208C66.5823 18.3192 66.6405 18.2007 66.6405 18.0652Z" fill="#F37833"/>
<path d="M81.0034 4.07031C83.4069 4.07031 84.6086 5.18787 84.6086 7.42299V20.7575H80.5382V15.2459H77.6017V20.7575H73.5313V7.42299C73.5313 5.18787 74.733 4.07031 77.1365 4.07031H81.0034ZM77.6017 12.5028H80.5382V6.9912C80.5382 6.85574 80.48 6.73721 80.3638 6.63562C80.2668 6.53402 80.1408 6.48322 79.9858 6.48322H78.1541C77.999 6.48322 77.8634 6.53402 77.7471 6.63562C77.6502 6.73721 77.6017 6.85574 77.6017 6.9912V12.5028Z" fill="#F37833"/>
<path d="M92.2944 14.0267V20.7575H88.224V4.3243H95.4635C97.867 4.3243 99.0687 5.44186 99.0687 7.67698V9.58191C99.0687 10.9365 98.5163 11.8001 97.4115 12.1726C98.3806 12.4774 98.8652 13.1716 98.8652 14.2553V20.7575H94.7948V14.5347C94.7948 14.1961 94.6107 14.0267 94.2424 14.0267H92.2944ZM92.2944 6.73721V11.5376H94.4459C94.601 11.5376 94.727 11.4868 94.8239 11.3852C94.9402 11.2836 94.9983 11.1651 94.9983 11.0297V7.2452C94.9983 7.10973 94.9402 6.9912 94.8239 6.88961C94.727 6.78801 94.601 6.73721 94.4459 6.73721H92.2944Z" fill="#F37833"/>
<path d="M107.287 13.9829V11.3668H112.507V17.4117C112.507 19.6469 111.341 20.7644 109.008 20.7644H105.453C103.121 20.7644 101.954 19.6469 101.954 17.4117V7.17592C101.954 4.9408 103.121 3.82324 105.453 3.82324H109.008C111.341 3.82324 112.507 4.9408 112.507 7.17592V8.72526H108.755V6.74413C108.755 6.60867 108.698 6.49014 108.585 6.38855C108.491 6.28695 108.369 6.23615 108.218 6.23615H106.441C106.29 6.23615 106.159 6.28695 106.046 6.38855C105.952 6.49014 105.905 6.60867 105.905 6.74413V17.8181C105.905 17.9536 105.952 18.0721 106.046 18.1737C106.159 18.2753 106.29 18.3261 106.441 18.3261H108.218C108.369 18.3261 108.491 18.2753 108.585 18.1737C108.698 18.0721 108.755 17.9536 108.755 17.8181V13.9829H107.287Z" fill="#174F78"/>
<path d="M126 7.17592V17.4117C126 19.6469 124.834 20.7644 122.501 20.7644H118.748C116.416 20.7644 115.249 19.6469 115.249 17.4117V7.17592C115.249 4.9408 116.416 3.82324 118.748 3.82324H122.501C124.834 3.82324 126 4.9408 126 7.17592ZM122.05 17.8181V6.74413C122.05 6.60867 121.993 6.49014 121.88 6.38855C121.786 6.28695 121.664 6.23615 121.513 6.23615H119.736C119.585 6.23615 119.454 6.28695 119.341 6.38855C119.247 6.49014 119.2 6.60867 119.2 6.74413V17.8181C119.2 17.9536 119.247 18.0721 119.341 18.1737C119.454 18.2753 119.585 18.3261 119.736 18.3261H121.513C121.664 18.3261 121.786 18.2753 121.88 18.1737C121.993 18.0721 122.05 17.9536 122.05 17.8181Z" fill="#174F78"/>
<path d="M13.2895 22.3939C15.2922 22.3939 17.0529 23.4214 18.0527 24.9658H35.0366C35.6748 23.9783 36.6243 23.1999 37.753 22.7692V1H0.961838V24.9658H8.52632C9.52297 23.4214 11.2836 22.3939 13.2895 22.3939Z" fill="#174F78"/>
<path d="M0.961838 27.0462C0.961838 27.2647 1.05616 27.4831 1.24794 27.6523C1.43973 27.8184 1.6881 27.9015 1.93962 27.9015H7.66172C7.66172 27.1539 7.81263 26.4402 8.0893 25.791H0.961838V27.0462Z" fill="#174F78"/>
<path d="M18.9172 27.9015H34.172C34.172 27.1539 34.3229 26.4402 34.5995 25.791H18.4897C18.7663 26.4402 18.9172 27.1539 18.9172 27.9015Z" fill="#174F78"/>
<path d="M50.1404 10.1621C48.5841 8.63926 46.5531 7.32867 44.6069 7.04564C42.6639 6.7626 38.866 6.74414 38.866 6.74414V22.4712C39.171 22.4188 39.4822 22.3942 39.7998 22.3942C42.906 22.3942 45.4275 24.8616 45.4275 27.9012H50.1435C50.7409 27.9012 51.3383 27.6796 51.791 27.2336C52.2469 26.7875 52.4764 26.206 52.4764 25.6215V15.6783C52.4764 13.6816 51.6967 11.685 50.1404 10.1621ZM50.8384 17.5672C50.8384 17.8041 50.7346 18.0349 50.5334 18.1979C50.3322 18.3579 50.0807 18.4102 49.8449 18.364L41.5101 16.7366C41.3277 16.7027 41.158 16.6074 41.0322 16.4566C40.9033 16.3059 40.8436 16.1213 40.8436 15.9398V8.97152C40.8436 8.97152 43.6323 8.98382 45.0597 9.19303C46.4871 9.40223 47.9805 10.3652 49.1217 11.4819C50.2661 12.6018 50.8384 14.0662 50.8384 15.5337V17.5672Z" fill="#174F78"/>
<path d="M17.2792 25.2739C17.2038 25.1693 17.1283 25.0647 17.0466 24.9662C16.1663 23.8864 14.8112 23.1973 13.2895 23.1973C11.7678 23.1973 10.4127 23.8864 9.52927 24.9662C9.44753 25.0647 9.37207 25.1693 9.29661 25.2739C9.18343 25.44 9.07968 25.6123 8.99165 25.7907C8.66152 26.4245 8.47917 27.1413 8.47917 27.9012C8.47917 30.5008 10.6328 32.6082 13.2895 32.6082C15.9462 32.6082 18.0967 30.5008 18.0967 27.9012C18.0967 27.1413 17.9143 26.4245 17.5842 25.7907C17.4962 25.6123 17.3924 25.44 17.2792 25.2739ZM13.2895 30.3378C11.9156 30.3378 10.7994 29.2456 10.7994 27.9012C10.7994 26.9998 11.3025 26.2091 12.0508 25.7907C12.4155 25.5815 12.8399 25.4646 13.2895 25.4646C13.7391 25.4646 14.1635 25.5815 14.5282 25.7907C15.2765 26.2091 15.7796 26.9998 15.7796 27.9012C15.7796 29.2456 14.6634 30.3378 13.2895 30.3378Z" fill="#174F78"/>
<path d="M39.7997 23.1973C39.4791 23.1973 39.1678 23.228 38.866 23.2865C38.4761 23.3603 38.102 23.4834 37.753 23.6464C36.9638 24.0064 36.2942 24.5725 35.81 25.2739C35.2944 26.0246 34.9926 26.929 34.9926 27.9012C34.9926 30.5008 37.1431 32.6082 39.7997 32.6082C42.4564 32.6082 44.6069 30.5008 44.6069 27.9012C44.6069 25.3016 42.4564 23.1973 39.7997 23.1973ZM39.7997 30.3378C38.4227 30.3378 37.3097 29.2456 37.3097 27.9012C37.3097 27.3874 37.4732 26.9075 37.753 26.5137C38.0265 26.1261 38.4132 25.8215 38.866 25.6431C39.1521 25.5292 39.4696 25.4646 39.7997 25.4646C41.1737 25.4646 42.2898 26.5568 42.2898 27.9012C42.2898 29.2456 41.1737 30.3378 39.7997 30.3378Z" fill="#174F78"/>
<path d="M37.753 3.05273H0.961838V3.66496H37.753V3.05273Z" fill="white"/>
</svg>
