<svg width="17" height="16" viewBox="0 0 17 16" fill="none" xmlns="http://www.w3.org/2000/svg">
<g clip-path="url(#clip0)">
<path d="M14.5563 2H1.55629C0.729128 2 0.0562744 2.67285 0.0562744 3.50001V12.5C0.0562744 13.3272 0.729128 14 1.55629 14H14.5563C15.3834 14 16.0563 13.3272 16.0563 12.5V3.50001C16.0563 2.67285 15.3834 2 14.5563 2ZM14.5563 3C14.6242 3 14.6888 3.01409 14.7479 3.03871L8.05628 8.83839L1.36461 3.03871C1.42369 3.01412 1.48832 3 1.55625 3H14.5563ZM14.5563 13H1.55629C1.28041 13 1.05627 12.7759 1.05627 12.5V4.09521L7.72863 9.87793C7.82289 9.95945 7.93958 10 8.05628 10C8.17297 10 8.28967 9.95949 8.38392 9.87793L15.0563 4.09521V12.5C15.0562 12.7759 14.8321 13 14.5563 13Z" fill="#F37833"/>
</g>
<defs>
<clipPath id="clip0">
<rect width="16" height="16" fill="white" transform="translate(0.0562744)"/>
</clipPath>
</defs>
</svg>
