<svg width="62" height="62" viewBox="0 0 62 62" fill="none" xmlns="http://www.w3.org/2000/svg">
<rect opacity="0.32" x="1.07294" y="1.24414" width="59.5057" height="59.5057" rx="29.7528" stroke="#F37833"/>
<rect x="8.3783" y="8.54932" width="44.895" height="44.895" rx="22.4475" stroke="#F37833"/>
<g clip-path="url(#clip0)">
<path d="M37.542 33.6556C36.5624 33.6556 35.6006 33.4928 34.6891 33.1728C34.2425 33.011 33.6934 33.1594 33.4208 33.4569L31.6218 34.8999C29.5354 33.7165 28.2503 32.3515 27.1518 30.1514L28.4699 28.2897C28.8123 27.9263 28.9352 27.3955 28.788 26.8975C28.4855 25.9239 28.3318 24.9025 28.3318 23.8612C28.3319 23.109 27.7559 22.4971 27.048 22.4971H24.1097C23.4018 22.4971 22.8258 23.109 22.8258 23.8612C22.8258 32.4829 29.4274 39.4971 37.542 39.4971C38.2499 39.4971 38.8258 38.8851 38.8258 38.133V35.0197C38.8258 34.2676 38.2498 33.6556 37.542 33.6556Z" fill="#F37833"/>
</g>
<defs>
<clipPath id="clip0">
<rect width="16" height="17" fill="white" transform="translate(22.8258 22.4971)"/>
</clipPath>
</defs>
</svg>
