<svg width="32" height="32" viewBox="0 0 32 32" fill="none" xmlns="http://www.w3.org/2000/svg">
<circle cx="16" cy="16" r="15.5" stroke="#ADABB9"/>
<path d="M22.5938 9.90625H9.40625C8.63181 9.90625 8 10.5374 8 11.3125V20.6875C8 21.46 8.629 22.0938 9.40625 22.0938H22.5938C23.3663 22.0938 24 21.4648 24 20.6875V11.3125C24 10.54 23.371 9.90625 22.5938 9.90625ZM22.3996 10.8438L16.0298 17.2135L9.60497 10.8438H22.3996ZM8.9375 20.4934V11.5022L13.4525 15.9784L8.9375 20.4934ZM9.60041 21.1562L14.1182 16.6384L15.7013 18.2079C15.8845 18.3896 16.1802 18.389 16.3627 18.2064L17.9062 16.6629L22.3996 21.1562H9.60041ZM23.0625 20.4933L18.5692 16L23.0625 11.5066V20.4933Z" fill="#535162"/>
</svg>
