<svg width="32" height="32" viewBox="0 0 32 32" fill="none" xmlns="http://www.w3.org/2000/svg">
<circle cx="16" cy="16" r="15.5" stroke="#ADABB9"/>
<g clip-path="url(#clip0)">
<path d="M23.4367 17.262C23.914 13.244 23.2073 10.7073 21.9327 9.56002L21.9333 9.55935C19.876 7.60002 12.928 7.31002 10.4667 9.64735C9.36133 10.7907 8.97199 12.4687 8.92933 14.546C8.88666 16.624 8.83599 20.5167 12.4633 21.5727H12.4667L12.4633 23.1854C12.4633 23.1854 12.4387 23.8387 12.856 23.97C13.3333 24.1247 13.5493 23.8214 15.034 22.048C17.5167 22.2634 19.4233 21.77 19.64 21.698C20.1413 21.53 22.978 21.1547 23.4367 17.262ZM15.2787 20.9134C15.2787 20.9134 13.7073 22.8727 13.2187 23.3814C13.0587 23.5467 12.8833 23.5314 12.886 23.2034C12.886 22.988 12.898 20.526 12.898 20.526C9.82266 19.6447 10.004 16.33 10.0373 14.596C10.0707 12.8614 10.388 11.4407 11.324 10.484C13.4833 8.45935 19.5747 8.91202 21.1267 10.3707C23.024 12.0527 22.3487 16.8047 22.3527 16.9667C21.9627 20.216 19.664 20.422 19.2413 20.5627C19.0607 20.6227 17.384 21.054 15.2787 20.9134Z" fill="#535162"/>
<path d="M16.1481 10.8652C15.8914 10.8652 15.8914 11.2652 16.1481 11.2686C18.1394 11.2839 19.7794 12.6719 19.7974 15.2179C19.7974 15.4866 20.1907 15.4832 20.1874 15.2146H20.1867C20.1654 12.4712 18.3747 10.8806 16.1481 10.8652Z" fill="#535162"/>
<path d="M18.7673 14.7954C18.7613 15.0607 19.154 15.0734 19.1573 14.8047C19.19 13.292 18.2573 12.046 16.5047 11.9147C16.248 11.896 16.2213 12.2994 16.4773 12.318C17.9973 12.4334 18.798 13.4707 18.7673 14.7954Z" fill="#535162"/>
<path d="M18.3472 16.5164C18.0179 16.3257 17.6826 16.4444 17.5439 16.6317L17.2539 17.0071C17.1066 17.1977 16.8312 17.1724 16.8312 17.1724C14.8219 16.6411 14.2846 14.5384 14.2846 14.5384C14.2846 14.5384 14.2599 14.2537 14.4439 14.1011L14.8066 13.8011C14.9879 13.6571 15.1026 13.3104 14.9179 12.9697C14.4246 12.0784 14.0932 11.7711 13.9246 11.5351C13.7472 11.3131 13.4806 11.2631 13.2032 11.4131H13.1973C12.6206 11.7504 11.9893 12.3817 12.1913 13.0317C12.5359 13.7171 13.1692 15.9017 15.1879 17.5524C16.1366 18.3331 17.6379 19.1331 18.2752 19.3177L18.2812 19.3271C18.9092 19.5364 19.5199 18.8804 19.8459 18.2864V18.2817C19.9906 17.9944 19.9426 17.7224 19.7312 17.5444C19.3566 17.1791 18.7912 16.7757 18.3472 16.5164Z" fill="#535162"/>
<path d="M16.7793 13.4028C17.4199 13.4401 17.7306 13.7748 17.764 14.4621C17.776 14.7308 18.166 14.7121 18.154 14.4435C18.1113 13.5461 17.6433 13.0461 16.8006 12.9994C16.5439 12.9841 16.5199 13.3875 16.7793 13.4028Z" fill="#535162"/>
</g>
<defs>
<clipPath id="clip0">
<rect width="16" height="16" fill="white" transform="translate(8 8)"/>
</clipPath>
</defs>
</svg>
