<svg width="55" height="29" viewBox="0 0 55 29" fill="none" xmlns="http://www.w3.org/2000/svg">
<rect x="0.5" y="0.5" width="54" height="28" rx="3.5" fill="#F37833"/>
<path d="M18.1449 17.8271L21.0453 8.20312H23.9809L19.5248 21H16.7738L12.3354 8.20312H15.2621L18.1449 17.8271ZM28.8975 21H26.2607V8.20312H28.8975V21ZM34.8863 16.4912V21H32.2496V8.20312H37.2418C38.2027 8.20312 39.0465 8.37891 39.773 8.73047C40.5055 9.08203 41.068 9.58301 41.4605 10.2334C41.8531 10.8779 42.0494 11.6133 42.0494 12.4395C42.0494 13.6934 41.6187 14.6836 40.7574 15.4102C39.902 16.1309 38.7154 16.4912 37.1979 16.4912H34.8863ZM34.8863 14.3555H37.2418C37.9391 14.3555 38.4693 14.1914 38.8326 13.8633C39.2018 13.5352 39.3863 13.0664 39.3863 12.457C39.3863 11.8301 39.2018 11.3232 38.8326 10.9365C38.4635 10.5498 37.9537 10.3506 37.3033 10.3389H34.8863V14.3555Z" fill="white"/>
<rect x="0.5" y="0.5" width="54" height="28" rx="3.5" stroke="#D75A14"/>
</svg>
