<?xml version="1.0" standalone="no"?>
<!DOCTYPE svg PUBLIC "-//W3C//DTD SVG 20010904//EN"
 "http://www.w3.org/TR/2001/REC-SVG-20010904/DTD/svg10.dtd">
<svg version="1.0" xmlns="http://www.w3.org/2000/svg"
 width="700.000000pt" height="700.000000pt" viewBox="0 0 700.000000 700.000000"
 preserveAspectRatio="xMidYMid meet">
<metadata>
Created by potrace 1.14, written by Peter Selinger 2001-2017
</metadata>
<g transform="translate(0.000000,700.000000) scale(0.100000,-0.100000)"
fill="#000000" stroke="none">
<path d="M513 5682 c-34 -5 -73 -58 -74 -100 0 -20 -1 -826 -1 -1791 l-1
-1754 36 -34 37 -33 186 2 186 3 19 72 c109 431 565 679 987 537 240 -82 435
-295 492 -539 l17 -70 879 -3 879 -2 0 1619 0 1618 -240 240 -241 240 -1569 0
c-864 -1 -1580 -3 -1592 -5z"/>
<path d="M4599 5682 c-1 -4 -3 -53 -4 -109 l-2 -103 109 0 c96 0 108 -2 109
-17 0 -10 0 -158 0 -329 l1 -311 109 -1 109 -1 0 356 c-1 331 -2 358 -20 394
-51 100 -110 126 -287 127 -68 0 -124 -2 -124 -6z"/>
<path d="M4379 4590 c-1 -3 -2 -593 -3 -1312 l-1 -1308 112 0 112 0 11 43 c55
218 159 371 326 482 176 117 363 152 592 110 168 -30 356 -159 465 -320 49
-72 104 -202 113 -267 l7 -48 184 0 c156 0 189 3 214 17 44 26 56 72 50 186
-1 16 -14 17 -148 17 -82 -1 -155 -1 -163 -1 -14 1 -16 17 -14 104 1 56 2 105
3 108 0 3 69 5 153 5 96 -1 155 3 162 10 9 8 12 96 7 194 -1 13 -34 15 -234
15 -261 -1 -293 5 -350 62 -60 59 -69 88 -71 241 -2 178 6 220 56 276 62 71
87 77 362 79 l239 2 0 90 c-1 50 -2 98 -2 108 -1 16 -53 17 -942 17 -693 0
-946 3 -962 12 -25 13 -56 46 -58 62 -1 6 -3 235 -3 508 -1 273 -5 500 -9 504
-8 8 -206 12 -208 4z m584 -1309 l67 -1 0 -109 0 -108 -217 1 -218 1 -1 105
-1 105 56 5 c31 3 99 4 151 3 52 -1 125 -2 163 -2z"/>
<path d="M4828 4592 c-14 -3 -16 -49 -16 -438 l0 -434 32 0 c43 -1 1529 -1
1590 -1 46 1 48 2 34 19 -9 9 -17 22 -19 28 -2 5 -85 145 -184 310 -207 343
-252 398 -376 457 -124 59 -141 60 -615 61 -237 1 -438 0 -446 -2z"/>
<path d="M6149 3060 c-24 -5 -24 -6 -23 -105 1 -55 2 -103 3 -106 0 -3 98 -5
216 -5 186 0 215 2 216 16 4 51 1 192 -4 197 -7 7 -374 10 -408 3z"/>
<path d="M1559 2399 c-137 -19 -267 -97 -356 -214 -158 -208 -139 -515 45
-703 169 -173 410 -215 639 -111 97 44 226 185 263 289 33 95 45 232 26 308
-3 12 -8 32 -11 45 -12 58 -80 172 -135 227 -130 130 -289 183 -471 159z m191
-539 l0 -110 -110 0 -110 0 0 110 0 110 110 0 110 0 0 -110z"/>
<path d="M5232 2389 c-191 -48 -341 -192 -399 -381 -25 -82 -21 -236 7 -318
77 -220 269 -364 499 -376 255 -12 503 181 555 433 80 391 -279 739 -662 642z
m238 -529 l0 -110 -110 0 -110 0 0 110 0 110 110 0 110 0 0 -110z"/>
</g>
</svg>
