<svg height="512" viewBox="0 0 64 64" width="512" xmlns="http://www.w3.org/2000/svg"><g data-name="Truck"><path d="M56 36h4v2h-4zm-4.4-14H44v8h15.234l-3.343-5.572A5.027 5.027 0 0051.6 22z"/><path d="M55.92 46H59a1 1 0 001-1v-1h-3v-2h3v-2h-4a2 2 0 01-2-2v-2a2 2 0 012-2h4v-1.892c0-.037-.013-.072-.015-.108H43a1 1 0 01-1-1v-9h-2v24h2.08a6.991 6.991 0 0113.84 0zM46 36h-4v-2h4zM21.92 46H38V16.414L33.586 12H5a1 1 0 00-1 1v32a1 1 0 001 1h3.08a6.991 6.991 0 0113.84 0z"/><path d="M15 42a5 5 0 105 5 5.006 5.006 0 00-5-5zm1 6h-2v-2h2zm33-6a5 5 0 105 5 5.006 5.006 0 00-5-5zm1 6h-2v-2h2zm-4-28h-2v-6h-2v-2h2a2 2 0 012 2z"/></g></svg>