<svg width="130" height="34" fill="none" xmlns="http://www.w3.org/2000/svg"><path d="M63.952 29.417l-.007-3.033-1.544 2.51h-.39l-1.545-2.47v2.993h-.832v-4.575h.718l1.867 3.032 1.834-3.032h.719l.006 4.575h-.826zm4.292.065c-.479 0-.91-.1-1.296-.3a2.318 2.318 0 01-.906-.843 2.286 2.286 0 01-.33-1.21c0-.444.11-.845.33-1.202.219-.362.521-.643.906-.843a2.717 2.717 0 011.296-.308c.48 0 .912.103 1.297.308a2.259 2.259 0 011.236 2.046 2.264 2.264 0 01-1.236 2.052c-.385.2-.817.3-1.297.3zm0-.745c.314 0 .596-.067.847-.202.25-.14.447-.332.59-.576.144-.248.216-.525.216-.83 0-.305-.072-.58-.215-.823a1.481 1.481 0 00-.591-.575 1.708 1.708 0 00-.847-.21c-.313 0-.595.07-.846.21a1.47 1.47 0 00-.59.575 1.595 1.595 0 00-.216.823c0 .305.072.582.215.83.143.244.34.436.591.576.25.135.533.202.846.202zm7.606-3.895l-2.05 4.575h-.86l-2.055-4.575h.947l1.565 3.53 1.578-3.53h.874zm.496 0h.873v4.575h-.873v-4.575zm6.322 0v4.575h-.719l-2.592-3.098v3.098h-.867v-4.575h.719l2.593 3.098v-3.098h.866zm4.47 2.235h.826V28.9a2.65 2.65 0 01-.846.432c-.322.1-.654.15-.994.15-.48 0-.911-.1-1.296-.3a2.264 2.264 0 01-1.236-2.052c0-.45.11-.852.329-1.21.22-.357.522-.636.907-.836a2.77 2.77 0 011.31-.308c.393 0 .751.064 1.074.19.322.126.593.311.813.555l-.551.523a1.792 1.792 0 00-1.296-.523c-.332 0-.627.068-.887.203a1.53 1.53 0 00-.604.569 1.62 1.62 0 00-.215.836c0 .305.071.58.215.824.147.244.349.436.604.575.26.14.553.21.88.21.367 0 .69-.08.967-.236v-1.425zm10.705-2.235l-1.559 4.575h-.926l-1.162-3.386-1.182 3.386h-.934l-1.558-4.575h.907l1.168 3.477 1.216-3.477h.806l1.189 3.497 1.202-3.497h.833zm.711 0h.873v4.575h-.873v-4.575zm3.098.718h-1.558v-.718h3.99v.719h-1.558v3.856h-.874V25.56zm7.265-.718v4.575h-.874v-1.96h-2.431v1.96h-.873v-4.575h.873v1.889h2.431v-1.89h.874zm5.144 2.96v1.615h-.873v-1.601l-1.847-2.974h.933l1.377 2.229 1.39-2.23h.86l-1.84 2.961zm4.405 1.68c-.479 0-.911-.1-1.297-.3a2.314 2.314 0 01-.906-.843 2.28 2.28 0 01-.329-1.21c0-.444.109-.845.329-1.202.219-.362.521-.643.906-.843a2.723 2.723 0 011.297-.308c.479 0 .911.103 1.296.308.385.2.687.479.907.836.219.357.329.76.329 1.21a2.268 2.268 0 01-1.236 2.052c-.385.2-.817.3-1.296.3zm0-.745c.313 0 .595-.067.846-.202.251-.14.448-.332.591-.576.143-.248.215-.525.215-.83 0-.305-.072-.58-.215-.823a1.478 1.478 0 00-.591-.575 1.713 1.713 0 00-.846-.21c-.314 0-.596.07-.847.21a1.49 1.49 0 00-.591.575 1.598 1.598 0 00-.215.823 1.557 1.557 0 00.806 1.406c.251.135.533.202.847.202zm5.479.745c-.649 0-1.155-.176-1.518-.53-.363-.357-.544-.866-.544-1.529v-2.581h.873v2.549c0 .897.399 1.346 1.196 1.346.792 0 1.188-.449 1.188-1.346v-2.55h.86v2.582c0 .663-.181 1.173-.544 1.53-.358.353-.862.53-1.511.53z" fill="#263238"/><path d="M66.64 18.065v-2.54h3.867v2.134c0 2.235-1.201 3.353-3.605 3.353H63.24c-2.404 0-3.605-1.118-3.605-3.353V7.423c0-2.235 1.201-3.353 3.605-3.353h3.663c2.404 0 3.605 1.118 3.605 3.353v1.55H66.64V6.99a.46.46 0 00-.174-.355.499.499 0 00-.378-.153h-1.832a.6.6 0 00-.407.153.499.499 0 00-.145.355v11.074c0 .136.048.254.145.356a.6.6 0 00.407.152h1.832c.155 0 .281-.05.378-.152a.46.46 0 00.175-.356zM81.003 4.07c2.404 0 3.606 1.118 3.606 3.353v13.335h-4.07v-5.512h-2.937v5.511h-4.07V7.424c0-2.235 1.201-3.353 3.605-3.353h3.866zm-3.401 8.433h2.936V6.99a.46.46 0 00-.174-.355.499.499 0 00-.378-.153h-1.832a.6.6 0 00-.407.153.5.5 0 00-.145.355v5.512zm14.692 1.524v6.73h-4.07V4.325h7.24c2.403 0 3.605 1.118 3.605 3.353v1.905c0 1.354-.553 2.218-1.657 2.59.969.305 1.453 1 1.453 2.083v6.502h-4.07v-6.222c0-.339-.184-.508-.553-.508h-1.948zm0-7.29v4.8h2.152c.155 0 .281-.05.378-.152a.46.46 0 00.174-.355V7.245a.46.46 0 00-.174-.355.499.499 0 00-.378-.153h-2.152z" fill="#F37833"/><path d="M107.287 13.983v-2.616h5.22v6.045c0 2.235-1.166 3.352-3.499 3.352h-3.555c-2.332 0-3.499-1.117-3.499-3.352V7.176c0-2.235 1.167-3.353 3.499-3.353h3.555c2.333 0 3.499 1.118 3.499 3.353v1.55h-3.752V6.743a.466.466 0 00-.17-.355.476.476 0 00-.367-.153h-1.777a.571.571 0 00-.395.153.507.507 0 00-.141.355v11.074c0 .136.047.254.141.356a.571.571 0 00.395.152h1.777c.151 0 .273-.05.367-.152a.466.466 0 00.17-.356v-3.835h-1.468zM126 7.176v10.236c0 2.235-1.166 3.352-3.499 3.352h-3.753c-2.332 0-3.499-1.117-3.499-3.352V7.176c0-2.235 1.167-3.353 3.499-3.353h3.753c2.333 0 3.499 1.118 3.499 3.353zm-3.95 10.642V6.744a.466.466 0 00-.17-.355.476.476 0 00-.367-.153h-1.777a.571.571 0 00-.395.153.507.507 0 00-.141.355v11.074c0 .136.047.254.141.356a.571.571 0 00.395.152h1.777c.151 0 .273-.05.367-.152a.466.466 0 00.17-.356zM13.29 22.394a5.664 5.664 0 014.763 2.572h16.984a5.626 5.626 0 012.716-2.197V1H.962v23.966h7.564a5.655 5.655 0 014.764-2.572zM.962 27.046c0 .219.094.437.286.606.192.166.44.25.692.25h5.722c0-.748.15-1.462.427-2.111H.962v1.255zm17.955.855h15.255c0-.747.15-1.46.428-2.11H18.49c.276.65.427 1.363.427 2.11zM50.14 10.162c-1.556-1.523-3.587-2.833-5.533-3.116-1.943-.283-5.741-.302-5.741-.302v15.727c.305-.052.616-.077.934-.077 3.106 0 5.628 2.468 5.628 5.507h4.716a2.34 2.34 0 001.647-.667 2.247 2.247 0 00.685-1.613v-9.943c0-1.996-.78-3.993-2.336-5.516zm.698 7.405a.807.807 0 01-.305.63.84.84 0 01-.688.167l-8.335-1.627a.814.814 0 01-.666-.797V8.972s2.788.012 4.216.221c1.427.21 2.92 1.172 4.062 2.289a5.648 5.648 0 011.716 4.052v2.033z" fill="#174F78"/><path d="M17.28 25.274a4.83 4.83 0 00-3.99-2.077 4.84 4.84 0 00-3.76 1.77 4.306 4.306 0 00-.538.825 4.55 4.55 0 00-.513 2.11c0 2.599 2.154 4.706 4.81 4.706 2.657 0 4.808-2.107 4.808-4.707a4.55 4.55 0 00-.513-2.11 4.3 4.3 0 00-.305-.517zm-3.99 5.064c-1.374 0-2.49-1.092-2.49-2.437a2.42 2.42 0 011.25-2.11 2.48 2.48 0 011.24-.326c.45 0 .874.116 1.238.326a2.421 2.421 0 011.252 2.11c0 1.345-1.117 2.437-2.49 2.437zm26.51-7.141a4.896 4.896 0 00-2.047.45c-.79.36-1.459.926-1.943 1.627a4.625 4.625 0 00-.817 2.627c0 2.6 2.15 4.707 4.807 4.707 2.656 0 4.807-2.107 4.807-4.707 0-2.6-2.15-4.704-4.807-4.704zm0 7.14c-1.377 0-2.49-1.091-2.49-2.436 0-.514.163-.994.443-1.387a2.47 2.47 0 011.113-.87 2.53 2.53 0 01.934-.18c1.374 0 2.49 1.093 2.49 2.437 0 1.345-1.116 2.437-2.49 2.437z" fill="#174F78"/><path d="M37.753 3.053H.962v.612h36.791v-.612z" fill="#fff"/></svg>