<svg width="17" height="16" fill="none" xmlns="http://www.w3.org/2000/svg"><g clip-path="url(#clip0)"><path d="M14.556 2h-13c-.827 0-1.5.673-1.5 1.5v9c0 .827.673 1.5 1.5 1.5h13c.827 0 1.5-.673 1.5-1.5v-9c0-.827-.673-1.5-1.5-1.5zm0 1c.068 0 .133.014.192.039l-6.692 5.8-6.691-5.8A.498.498 0 011.556 3h13zm0 10h-13a.5.5 0 01-.5-.5V4.095L7.73 9.878a.5.5 0 00.655 0l6.672-5.783V12.5a.5.5 0 01-.5.5z" fill="#F37833"/></g><defs><clipPath id="clip0"><path fill="#fff" transform="translate(.056)" d="M0 0h16v16H0z"/></clipPath></defs></svg>