<svg width="62" height="62" fill="none" xmlns="http://www.w3.org/2000/svg"><rect opacity=".32" x="1.073" y="1.244" width="59.506" height="59.506" rx="29.753" stroke="#F37833"/><rect x="8.378" y="8.549" width="44.895" height="44.895" rx="22.448" stroke="#F37833"/><g clip-path="url(#clip0)"><path d="M37.542 33.656a8.6 8.6 0 01-2.853-.483c-.447-.162-.996-.014-1.268.284l-1.8 1.443c-2.086-1.183-3.37-2.548-4.47-4.749l1.319-1.861c.342-.364.465-.895.318-1.392a10.22 10.22 0 01-.456-3.037c0-.752-.576-1.364-1.284-1.364H24.11c-.708 0-1.284.612-1.284 1.364 0 8.622 6.601 15.636 14.716 15.636.708 0 1.284-.612 1.284-1.364V35.02c0-.752-.576-1.364-1.284-1.364z" fill="#F37833"/></g><defs><clipPath id="clip0"><path fill="#fff" transform="translate(22.826 22.497)" d="M0 0h16v17H0z"/></clipPath></defs></svg>