<svg width="32" height="32" fill="none" xmlns="http://www.w3.org/2000/svg"><circle cx="16" cy="16" r="15.5" stroke="#ADABB9"/><path d="M22.594 9.906H9.406c-.774 0-1.406.631-1.406 1.406v9.376c0 .772.629 1.406 1.406 1.406h13.188A1.41 1.41 0 0024 20.687v-9.375c0-.772-.629-1.406-1.406-1.406zm-.194.938l-6.37 6.37-6.425-6.37H22.4zm-13.462 9.65v-8.992l4.514 4.476-4.514 4.515zm.662.662l4.518-4.518 1.583 1.57a.469.469 0 00.662-.002l1.543-1.543 4.494 4.493H9.6zm13.463-.663L18.569 16l4.494-4.493v8.986z" fill="#535162"/></svg>