<svg width="32" height="32" fill="none" xmlns="http://www.w3.org/2000/svg"><circle cx="16" cy="16" r="15.5" stroke="#ADABB9"/><g clip-path="url(#clip0)" fill="#535162"><path d="M23.437 17.262c.477-4.018-.23-6.555-1.504-7.702-2.057-1.96-9.005-2.25-11.466.087-1.106 1.144-1.495 2.822-1.538 4.899-.042 2.078-.093 5.97 3.534 7.027h.004l-.004 1.612s-.024.654.393.785c.477.155.693-.149 2.178-1.922 2.483.215 4.39-.278 4.606-.35.501-.168 3.338-.543 3.797-4.436zm-8.158 3.651s-1.572 1.96-2.06 2.468c-.16.166-.336.15-.333-.178l.012-2.677c-3.075-.881-2.894-4.196-2.86-5.93.033-1.735.35-3.155 1.286-4.112 2.16-2.025 8.25-1.572 9.803-.113 1.897 1.682 1.222 6.434 1.226 6.596-.39 3.249-2.689 3.455-3.112 3.596-.18.06-1.857.491-3.962.35z"/><path d="M16.148 10.865c-.257 0-.257.4 0 .404 1.991.015 3.631 1.403 3.65 3.949 0 .269.393.265.39-.003h-.001c-.022-2.744-1.812-4.334-4.039-4.35z"/><path d="M18.767 14.795c-.006.266.387.278.39.01.033-1.513-.9-2.759-2.652-2.89-.257-.019-.284.384-.028.403 1.52.115 2.321 1.153 2.29 2.477zm-.42 1.721c-.33-.19-.664-.072-.803.116l-.29.375c-.147.19-.423.165-.423.165-2.01-.53-2.546-2.634-2.546-2.634s-.025-.284.159-.437l.363-.3c.18-.144.296-.49.11-.831-.492-.892-.824-1.199-.992-1.435-.178-.222-.444-.272-.722-.122h-.006c-.576.337-1.208.969-1.006 1.619.345.685.978 2.87 2.997 4.52.949.781 2.45 1.581 3.087 1.766l.006.01c.628.208 1.239-.448 1.565-1.042v-.004c.145-.288.097-.56-.115-.738-.374-.365-.94-.768-1.384-1.028z"/><path d="M16.78 13.403c.64.037.95.372.984 1.06.012.268.402.25.39-.02-.043-.897-.51-1.397-1.353-1.444-.257-.015-.281.388-.022.404z"/></g><defs><clipPath id="clip0"><path fill="#fff" transform="translate(8 8)" d="M0 0h16v16H0z"/></clipPath></defs></svg>