<svg width="55" height="29" fill="none" xmlns="http://www.w3.org/2000/svg"><rect x=".5" y=".5" width="54" height="28" rx="3.5" fill="#F37833"/><path d="M18.145 17.827l2.9-9.624h2.936L19.525 21h-2.751L12.335 8.203h2.927l2.883 9.624zM28.898 21H26.26V8.203h2.637V21zm5.988-4.509V21H32.25V8.203h4.992c.96 0 1.805.176 2.531.527.732.352 1.295.853 1.688 1.503.392.645.588 1.38.588 2.207 0 1.253-.43 2.244-1.292 2.97-.855.72-2.042 1.081-3.56 1.081h-2.31zm0-2.136h2.356c.697 0 1.227-.164 1.59-.492.37-.328.554-.797.554-1.406 0-.627-.184-1.134-.553-1.52-.37-.387-.88-.586-1.53-.598h-2.417v4.016z" fill="#fff"/><rect x=".5" y=".5" width="54" height="28" rx="3.5" stroke="#D75A14"/></svg>